REM DIRINDEX 1\2\3,1\2\4,1\2\5,1\2\6
REM DIRNAME cjc157,folder01,folder02,folder03,folder04,folder05
TITLE ""
FILE "169 169.mp3" MP3
  TRACK 01 AUDIO
    TITLE "0:"
    INDEX 01 00:00:00
  TRACK 02 AUDIO
    TITLE "3:cjc157_6158"
    INDEX 01 00:00:09
  TRACK 03 AUDIO
    TITLE "0:"
    INDEX 01 00:02:20
  TRACK 04 AUDIO
    TITLE "4:cjc157_6159"
    INDEX 01 00:02:65
  TRACK 05 AUDIO
    TITLE "0:"
    INDEX 01 00:04:40
  TRACK 06 AUDIO
    TITLE "5:cjc157_6160"
    INDEX 01 00:05:09
  TRACK 07 AUDIO
    TITLE "0:"
    INDEX 01 00:08:01
  TRACK 08 AUDIO
    TITLE "5:cjc157_6161"
    INDEX 01 00:08:52
  TRACK 09 AUDIO
    TITLE "0:"
    INDEX 01 00:11:48
  TRACK 10 AUDIO
    TITLE "3:cjc157_6162"
    INDEX 01 00:12:16
  TRACK 11 AUDIO
    TITLE "0:"
    INDEX 01 00:13:67
  TRACK 12 AUDIO
    TITLE "4:cjc157_6163"
    INDEX 01 00:14:39
  TRACK 13 AUDIO
    TITLE "0:"
    INDEX 01 00:15:64
  TRACK 14 AUDIO
    TITLE "5:cjc157_6164"
    INDEX 01 00:16:38
  TRACK 15 AUDIO
    TITLE "0:"
    INDEX 01 00:19:71
  TRACK 16 AUDIO
    TITLE "3:cjc157_6165"
    INDEX 01 00:20:41
  TRACK 17 AUDIO
    TITLE "0:"
    INDEX 01 00:23:38
  TRACK 18 AUDIO
    TITLE "4:cjc157_6166"
    INDEX 01 00:24:08
  TRACK 19 AUDIO
    TITLE "0:"
    INDEX 01 00:26:36
  TRACK 20 AUDIO
    TITLE "5:cjc157_6167"
    INDEX 01 00:27:08
  TRACK 21 AUDIO
    TITLE "0:"
    INDEX 01 00:30:67
  TRACK 22 AUDIO
    TITLE "3:cjc157_6168"
    INDEX 01 00:31:41
  TRACK 23 AUDIO
    TITLE "0:"
    INDEX 01 00:33:15
  TRACK 24 AUDIO
    TITLE "4:cjc157_6169"
    INDEX 01 00:33:64
  TRACK 25 AUDIO
    TITLE "0:"
    INDEX 01 00:35:02
  TRACK 26 AUDIO
    TITLE "5:cjc157_6170"
    INDEX 01 00:35:49
  TRACK 27 AUDIO
    TITLE "0:"
    INDEX 01 00:39:13
  TRACK 28 AUDIO
    TITLE "3:cjc157_6171"
    INDEX 01 00:39:60
  TRACK 29 AUDIO
    TITLE "0:"
    INDEX 01 00:41:28
  TRACK 30 AUDIO
    TITLE "4:cjc157_6172"
    INDEX 01 00:41:73
  TRACK 31 AUDIO
    TITLE "0:"
    INDEX 01 00:43:19
  TRACK 32 AUDIO
    TITLE "5:cjc157_6173"
    INDEX 01 00:43:70
  TRACK 33 AUDIO
    TITLE "0:"
    INDEX 01 00:47:70
  TRACK 34 AUDIO
    TITLE "5:cjc157_6174"
    INDEX 01 00:48:36
  TRACK 35 AUDIO
    TITLE "0:"
    INDEX 01 00:53:15
  TRACK 36 AUDIO
    TITLE "3:cjc157_6175"
    INDEX 01 00:53:68
  TRACK 37 AUDIO
    TITLE "0:"
    INDEX 01 00:55:36
  TRACK 38 AUDIO
    TITLE "4:cjc157_6176"
    INDEX 01 00:56:08
  TRACK 39 AUDIO
    TITLE "0:"
    INDEX 01 00:57:29
  TRACK 40 AUDIO
    TITLE "5:cjc157_6177"
    INDEX 01 00:58:01
  TRACK 41 AUDIO
    TITLE "0:"
    INDEX 01 01:01:01
  TRACK 42 AUDIO
    TITLE "5:cjc157_6178"
    INDEX 01 01:01:50
  TRACK 43 AUDIO
    TITLE "0:"
    INDEX 01 01:05:50
  TRACK 44 AUDIO
    TITLE "5:cjc157_6179"
    INDEX 01 01:06:22
  TRACK 45 AUDIO
    TITLE "0:"
    INDEX 01 01:09:71
  TRACK 46 AUDIO
    TITLE "3:cjc157_6180"
    INDEX 01 01:10:39
  TRACK 47 AUDIO
    TITLE "0:"
    INDEX 01 01:12:26
  TRACK 48 AUDIO
    TITLE "4:cjc157_6181"
    INDEX 01 01:12:73
  TRACK 49 AUDIO
    TITLE "0:"
    INDEX 01 01:14:21
  TRACK 50 AUDIO
    TITLE "5:cjc157_6182"
    INDEX 01 01:14:65
  TRACK 51 AUDIO
    TITLE "0:"
    INDEX 01 01:18:62
  TRACK 52 AUDIO
    TITLE "5:cjc157_6183"
    INDEX 01 01:19:36
  TRACK 53 AUDIO
    TITLE "0:"
    INDEX 01 01:22:64
  TRACK 54 AUDIO
    TITLE "3:cjc157_6184"
    INDEX 01 01:23:34
  TRACK 55 AUDIO
    TITLE "0:"
    INDEX 01 01:24:61
  TRACK 56 AUDIO
    TITLE "4:cjc157_6185"
    INDEX 01 01:25:35
  TRACK 57 AUDIO
    TITLE "0:"
    INDEX 01 01:26:64
  TRACK 58 AUDIO
    TITLE "5:cjc157_6186"
    INDEX 01 01:27:30
  TRACK 59 AUDIO
    TITLE "0:"
    INDEX 01 01:30:66
  TRACK 60 AUDIO
    TITLE "5:cjc157_6187"
    INDEX 01 01:31:38
  TRACK 61 AUDIO
    TITLE "0:"
    INDEX 01 01:35:22
  TRACK 62 AUDIO
    TITLE "3:cjc157_6188"
    INDEX 01 01:35:69
  TRACK 63 AUDIO
    TITLE "0:"
    INDEX 01 01:37:13
  TRACK 64 AUDIO
    TITLE "4:cjc157_6189"
    INDEX 01 01:37:58
  TRACK 65 AUDIO
    TITLE "0:"
    INDEX 01 01:39:04
  TRACK 66 AUDIO
    TITLE "5:cjc157_6190"
    INDEX 01 01:39:51
  TRACK 67 AUDIO
    TITLE "0:"
    INDEX 01 01:42:73
  TRACK 68 AUDIO
    TITLE "3:cjc157_6191"
    INDEX 01 01:43:51
  TRACK 69 AUDIO
    TITLE "0:"
    INDEX 01 01:45:44
  TRACK 70 AUDIO
    TITLE "4:cjc157_6192"
    INDEX 01 01:46:10
  TRACK 71 AUDIO
    TITLE "0:"
    INDEX 01 01:47:66
  TRACK 72 AUDIO
    TITLE "5:cjc157_6193"
    INDEX 01 01:48:42
  TRACK 73 AUDIO
    TITLE "0:"
    INDEX 01 01:52:00
